<svg id="visual" viewBox="0 0 900 600" width="900" height="600" xmlns="http://www.w3.org/2000/svg" xmlns:xlink="http://www.w3.org/1999/xlink" version="1.1"><path d="M177 0L255.7 10C334.3 20 491.7 40 500.7 60C509.7 80 370.3 100 346 120C321.7 140 412.3 160 479 180C545.7 200 588.3 220 578.7 240C569 260 507 280 495.5 300C484 320 523 340 503.8 360C484.7 380 407.3 400 419.2 420C431 440 532 460 528.5 480C525 500 417 520 371 540C325 560 341 580 349 590L357 600L0 600L0 590C0 580 0 560 0 540C0 520 0 500 0 480C0 460 0 440 0 420C0 400 0 380 0 360C0 340 0 320 0 300C0 280 0 260 0 240C0 220 0 200 0 180C0 160 0 140 0 120C0 100 0 80 0 60C0 40 0 20 0 10L0 0Z" fill="#6600FF" stroke-linecap="round" stroke-linejoin="miter"></path></svg>